<?xml version="1.0" encoding="utf-8"?>
<!-- Generator: Adobe Illustrator 24.3.0, SVG Export Plug-In . SVG Version: 6.00 Build 0)  -->
<svg version="1.1" xmlns="http://www.w3.org/2000/svg" xmlns:xlink="http://www.w3.org/1999/xlink" x="0px" y="0px"
	 viewBox="0 0 1980 1080" style="enable-background:new 0 0 1980 1080;" xml:space="preserve">
<style type="text/css">
	.st0{display:none;}
	.st1{fill:url(#SVGID_1_);}
	.st2{fill:url(#SVGID_2_);}
	.st3{fill:url(#SVGID_3_);}
	.st4{fill:url(#SVGID_4_);}
	.st5{fill:url(#SVGID_5_);}
	.st6{fill:url(#SVGID_6_);}
	.st7{fill:url(#SVGID_7_);}
	.st8{fill:url(#SVGID_8_);}
	.st9{fill:#7AB354;}
</style>
<g id="Layer_1" class="st0">
</g>
<g id="Layer_2">
	<g>
		<linearGradient id="SVGID_1_" gradientUnits="userSpaceOnUse" x1="1049.2292" y1="-164.12" x2="930.7708" y2="507.6914">
			<stop  offset="0" style="stop-color:#2484C6"/>
			<stop  offset="1" style="stop-color:#2484C6;stop-opacity:0"/>
		</linearGradient>
		<path class="st1" d="M557,343.57c23.14,0,249.43-133.71,478.29,0c0,0,619.14-259.71,944.71,0V0H0v343.57
			C0,343.57,253.57,163.57,557,343.57z"/>
		<linearGradient id="SVGID_2_" gradientUnits="userSpaceOnUse" x1="-137.2857" y1="523.5714" x2="2177.6101" y2="523.5714">
			<stop  offset="0" style="stop-color:#39B54A"/>
			<stop  offset="0.3199" style="stop-color:#37AF49"/>
			<stop  offset="0.5231" style="stop-color:#32A547"/>
			<stop  offset="0.694" style="stop-color:#279644"/>
			<stop  offset="0.8468" style="stop-color:#168240"/>
			<stop  offset="0.9863" style="stop-color:#006A39"/>
			<stop  offset="1" style="stop-color:#006838"/>
		</linearGradient>
		<path class="st2" d="M1980,703.57v-360h-944.71H557H0v264.86C640.7,422.14,1639.71,626.91,1980,703.57z"/>
		<linearGradient id="SVGID_3_" gradientUnits="userSpaceOnUse" x1="388.5607" y1="-280.6137" x2="270.1022" y2="391.1977">
			<stop  offset="0" style="stop-color:#2484C6"/>
			<stop  offset="1" style="stop-color:#2484C6;stop-opacity:0"/>
		</linearGradient>
		<path class="st3" d="M0,343.57h557C253.57,163.57,0,343.57,0,343.57z"/>
		<linearGradient id="SVGID_4_" gradientUnits="userSpaceOnUse" x1="-137.2857" y1="303.5714" x2="2177.6101" y2="303.5714">
			<stop  offset="0" style="stop-color:#39B54A"/>
			<stop  offset="0.3199" style="stop-color:#37AF49"/>
			<stop  offset="0.5231" style="stop-color:#32A547"/>
			<stop  offset="0.694" style="stop-color:#279644"/>
			<stop  offset="0.8468" style="stop-color:#168240"/>
			<stop  offset="0.9863" style="stop-color:#006A39"/>
			<stop  offset="1" style="stop-color:#006838"/>
		</linearGradient>
		<path class="st4" d="M0,343.57h557C253.57,163.57,0,343.57,0,343.57z"/>
		<linearGradient id="SVGID_5_" gradientUnits="userSpaceOnUse" x1="1580.6403" y1="-70.4179" x2="1462.1819" y2="601.3936">
			<stop  offset="0" style="stop-color:#2484C6"/>
			<stop  offset="1" style="stop-color:#2484C6;stop-opacity:0"/>
		</linearGradient>
		<path class="st5" d="M1035.29,343.57H1980C1654.43,83.86,1035.29,343.57,1035.29,343.57z"/>
		<linearGradient id="SVGID_6_" gradientUnits="userSpaceOnUse" x1="-137.2857" y1="285.8571" x2="2177.6101" y2="285.8571">
			<stop  offset="0" style="stop-color:#39B54A"/>
			<stop  offset="0.3199" style="stop-color:#37AF49"/>
			<stop  offset="0.5231" style="stop-color:#32A547"/>
			<stop  offset="0.694" style="stop-color:#279644"/>
			<stop  offset="0.8468" style="stop-color:#168240"/>
			<stop  offset="0.9863" style="stop-color:#006A39"/>
			<stop  offset="1" style="stop-color:#006838"/>
		</linearGradient>
		<path class="st6" d="M1035.29,343.57H1980C1654.43,83.86,1035.29,343.57,1035.29,343.57z"/>
		<linearGradient id="SVGID_7_" gradientUnits="userSpaceOnUse" x1="890.5947" y1="-192.0916" x2="772.1362" y2="479.7199">
			<stop  offset="0" style="stop-color:#2484C6"/>
			<stop  offset="1" style="stop-color:#2484C6;stop-opacity:0"/>
		</linearGradient>
		<path class="st7" d="M557,343.57h478.29C806.43,209.86,580.14,343.57,557,343.57z"/>
		<linearGradient id="SVGID_8_" gradientUnits="userSpaceOnUse" x1="-137.2857" y1="313.8571" x2="2177.6101" y2="313.8571">
			<stop  offset="0" style="stop-color:#39B54A"/>
			<stop  offset="0.3199" style="stop-color:#37AF49"/>
			<stop  offset="0.5231" style="stop-color:#32A547"/>
			<stop  offset="0.694" style="stop-color:#279644"/>
			<stop  offset="0.8468" style="stop-color:#168240"/>
			<stop  offset="0.9863" style="stop-color:#006A39"/>
			<stop  offset="1" style="stop-color:#006838"/>
		</linearGradient>
		<path class="st8" d="M557,343.57h478.29C806.43,209.86,580.14,343.57,557,343.57z"/>
		<path class="st9" d="M0,608.43V1080h1980V703.57C1639.71,626.91,640.7,422.14,0,608.43z"/>
	</g>
</g>
</svg>
