<svg id="flower_pink_svg" xmlns="http://www.w3.org/2000/svg" xmlns:xlink="http://www.w3.org/1999/xlink" viewBox="0 0 1920 1080" shape-rendering="geometricPrecision" text-rendering="geometricPrecision"><style><![CDATA[#flower_pink_svg-g1_tr {animation: flower_pink_svg-g1_tr__tr 1000ms linear infinite normal forwards}@keyframes flower_pink_svg-g1_tr__tr { 0% {transform: translate(147.590000px,160.797005px) rotate(0deg)} 100% {transform: translate(147.590000px,160.797005px) rotate(359deg)} }]]></style><line id="flower_pink_svg-line1" x1="212.710000" y1="184.390000" x2="144.710000" y2="395.610000" fill="rgb(125,182,87)" stroke="rgb(122,201,67)" stroke-width="5" stroke-miterlimit="10"/><line id="flower_pink_svg-line2" x1="147.590000" y1="154.790000" x2="140.850000" y2="668.090000" fill="rgb(125,182,87)" stroke="rgb(122,201,67)" stroke-width="5" stroke-miterlimit="10"/><g id="flower_pink_svg-g1_tr" transform="translate(147.590000,160.797005) rotate(0)"><g id="flower_pink_svg-g1" transform="translate(-149.838553,-158.676839)"><path id="flower_pink_svg-path1" d="M775.570000,421C993.200000,367.460000,902,568,902,568C902,568,686.140000,443,775.570000,421Z" transform="matrix(1 0 0 1 -753.87000000000000 -411.91000000000003)" fill="rgb(243,197,245)" stroke="none" stroke-width="1"/><path id="flower_pink_svg-path2" d="M794.890000,432.740000C953.720000,393.670000,887.160000,540,887.160000,540C887.160000,540,729.630000,448.800000,794.890000,432.740000Z" transform="matrix(1 0 0 1 -753.87000000000000 -411.91000000000003)" fill="rgb(244,209,253)" stroke="none" stroke-width="1"/><path id="flower_pink_svg-path3" d="M1092.100000,529.340000C1032.770000,745.460000,902.100000,568.080000,902.100000,568.080000C902.100000,568.080000,1116.480000,440.530000,1092.100000,529.340000Z" transform="matrix(1 0 0 1 -753.87000000000000 -411.91000000000003)" fill="rgb(243,197,245)" stroke="none" stroke-width="1"/><path id="flower_pink_svg-path4" d="M1073.430000,540.480000C1030.130000,698.210000,934.780000,568.760000,934.780000,568.760000C934.780000,568.760000,1091.220000,475.670000,1073.430000,540.480000Z" transform="matrix(1 0 0 1 -753.87000000000000 -411.91000000000003)" fill="rgb(244,209,253)" stroke="none" stroke-width="1"/><path id="flower_pink_svg-path5" d="M810,703.830000C718,537.390000,902.440000,567.710000,902.440000,567.710000C902.440000,567.710000,847.840000,772.230000,810,703.830000Z" transform="matrix(1 0 0 1 -753.87000000000000 -411.91000000000003)" fill="rgb(243,197,245)" stroke="none" stroke-width="1"/><path id="flower_pink_svg-path6" d="M813.750000,689C746.580000,567.520000,881.220000,589.650000,881.220000,589.650000C881.220000,589.650000,841.360000,738.910000,813.750000,689Z" transform="matrix(1 0 0 1 -753.87000000000000 -411.91000000000003)" fill="rgb(244,209,253)" stroke="none" stroke-width="1"/></g></g></svg>