<svg id="flower_white_svg" xmlns="http://www.w3.org/2000/svg" xmlns:xlink="http://www.w3.org/1999/xlink" viewBox="0 0 1920 1080" shape-rendering="geometricPrecision" text-rendering="geometricPrecision"><style><![CDATA[#flower_white_svg-g1_tr {animation: flower_white_svg-g1_tr__tr 4000ms linear infinite normal forwards}@keyframes flower_white_svg-g1_tr__tr { 0% {transform: translate(815.704987px,753px) rotate(0deg)} 50% {transform: translate(815.704987px,753px) rotate(12.305448deg)} 100% {transform: translate(815.704987px,753px) rotate(-1.455877deg)} }]]></style><g id="flower_white_svg-g1_tr" transform="translate(815.704987,753) rotate(0)"><g id="flower_white_svg-g1" transform="translate(-815.704987,-753)"><polygon id="flower_white_svg-polygon1" points="805.380000,521.410000 789.500000,513.500000 805.380000,505.090000" fill="rgb(51,221,51)" stroke="none" stroke-width="1"/><path id="flower_white_svg-path1" d="M907.830000,1080C907.830000,1080,872.500000,656.500000,801.500000,515.500000" fill="none" stroke="rgb(0,255,0)" stroke-width="10" stroke-miterlimit="10"/><circle id="flower_white_svg-circle1" r="35" transform="matrix(1 0 0 1 781 480)" fill="rgb(221,213,253)" stroke="none" stroke-width="1"/><path id="flower_white_svg-path2" d="M841.470000,639.380000C841.470000,639.380000,879.900000,535.580000,877.700000,493.880000" fill="none" stroke="rgb(0,255,0)" stroke-width="10" stroke-miterlimit="10"/><circle id="flower_white_svg-circle2" r="35" transform="matrix(1 0 0 1 877 461)" fill="rgb(221,213,253)" stroke="none" stroke-width="1"/><path id="flower_white_svg-path3" d="M862.600000,764.850000C862.600000,764.850000,907.710000,663.770000,908.230000,622.020000" fill="none" stroke="rgb(0,255,0)" stroke-width="10" stroke-miterlimit="10"/><circle id="flower_white_svg-circle3" r="35" transform="matrix(1 0 0 1 909.66999999999996 589.16999999999996)" fill="rgb(221,213,253)" stroke="none" stroke-width="1"/><path id="flower_white_svg-path4" d="M888.240000,909.290000C888.240000,909.290000,934.670000,808.810000,935.740000,767.070000" fill="none" stroke="rgb(0,255,0)" stroke-width="10" stroke-miterlimit="10"/><circle id="flower_white_svg-circle4" r="35" transform="matrix(1 0 0 1 937.61000000000001 734.24000000000001)" fill="rgb(221,213,253)" stroke="none" stroke-width="1"/><path id="flower_white_svg-path5" d="M839.140000,635.320000C839.140000,635.320000,741.320000,583.520000,715.180000,550.950000" fill="none" stroke="rgb(0,255,0)" stroke-width="10" stroke-miterlimit="10"/><circle id="flower_white_svg-circle5" r="35" transform="matrix(1 0 0 1 693.79999999999995 525.97000000000003)" fill="rgb(221,213,253)" stroke="none" stroke-width="1"/><path id="flower_white_svg-path6" d="M867.520000,761.360000C867.520000,761.360000,766.080000,717.070000,737.560000,686.560000" fill="none" stroke="rgb(0,255,0)" stroke-width="10" stroke-miterlimit="10"/><circle id="flower_white_svg-circle6" r="35" transform="matrix(1 0 0 1 714.36000000000001 663.25999999999999)" fill="rgb(221,213,253)" stroke="none" stroke-width="1"/><path id="flower_white_svg-path7" d="M888.340000,907.350000C888.340000,907.350000,793.910000,849.600000,769.830000,815.490000" fill="none" stroke="rgb(0,255,0)" stroke-width="10" stroke-miterlimit="10"/><circle id="flower_white_svg-circle7" r="35" transform="matrix(1 0 0 1 754.02999999999997 787.02999999999997)" fill="rgb(221,213,253)" stroke="none" stroke-width="1"/></g></g></svg>