<svg id="tulip_red_svg" xmlns="http://www.w3.org/2000/svg" xmlns:xlink="http://www.w3.org/1999/xlink" viewBox="0 0 1920 1080" shape-rendering="geometricPrecision" text-rendering="geometricPrecision"><style><![CDATA[#tulip_red_svg-g1_tr {animation: tulip_red_svg-g1_tr__tr 4000ms linear infinite normal forwards}@keyframes tulip_red_svg-g1_tr__tr { 0% {transform: translate(906.931122px,742.581024px) rotate(0deg)} 50% {transform: translate(906.931122px,742.581024px) rotate(16.268167deg)} 100% {transform: translate(906.931122px,742.581024px) rotate(-0.287305deg)} }]]></style><g id="tulip_red_svg-g1_tr" transform="translate(906.931122,742.581024) rotate(0)"><g id="tulip_red_svg-g1" transform="translate(-906.931122,-742.581024)"><path id="tulip_red_svg-path1" d="M996.290000,1080L754.500000,710.500000C754.500000,710.500000,820.070000,962.500000,996.290000,1080Z" fill="rgb(73,77,62)" stroke="none" stroke-width="1"/><path id="tulip_red_svg-path2" d="M992.110000,1079.840000L1079,825C1079,825,1055.430000,998.800000,992.110000,1079.840000Z" fill="rgb(73,77,62)" stroke="none" stroke-width="1"/><path id="tulip_red_svg-path3" d="M888,619C888,619,888,619,880.570000,627C873.140000,635,857,627,857,627L996.290000,1080" fill="rgb(100,106,74)" stroke="none" stroke-width="1"/><path id="tulip_red_svg-path4" d="M978.790000,1057.060000L764.300000,728.470000C764.300000,728.470000,865.290000,965.670000,978.790000,1057.060000Z" fill="rgb(89,95,69)" stroke="none" stroke-width="1"/><ellipse id="tulip_red_svg-ellipse1" rx="40" ry="54.500000" transform="matrix(0.95830000000000 -0.28580000000000 0.28580000000000 0.95830000000000 830.01910000000009 494.46635000000003)" fill="rgb(255,141,155)" stroke="none" stroke-width="1"/><path id="tulip_red_svg-path5" d="M897.890000,567.180000C897.890000,567.180000,806.540000,441.530000,745.500000,438.240000C684.460000,434.950000,906.400000,802.620000,897.890000,567.180000Z" fill="rgb(238,112,136)" stroke="none" stroke-width="1"/><path id="tulip_red_svg-path6" d="M844.630000,599.570000C839.350000,588.780000,836.580000,576.920000,836.520000,564.910000C836.310000,524.840000,837.750000,427.950000,865.710000,406.450000C900.120000,379.980000,929.050000,772.230000,844.630000,599.570000Z" fill="rgb(233,86,98)" stroke="none" stroke-width="1"/></g></g><path id="tulip_red_svg-path7" d="" fill="rgb(251,227,119)" stroke="none" stroke-width="1"/></svg>